<mxfile host="app.diagrams.net" modified="2022-01-05T01:03:40.398Z" agent="5.0 (Macintosh; Intel Mac OS X 10_15_7) AppleWebKit/537.36 (KHTML, like Gecko) Chrome/96.0.4664.110 Safari/537.36" etag="QGq7a5vcQ-a7mEol_Okt" version="16.1.4" type="github">
  <diagram id="f7TjbeRh75dxrW8cv5mP" name="Page-1">
    <mxGraphModel dx="1018" dy="585" grid="1" gridSize="10" guides="1" tooltips="1" connect="1" arrows="1" fold="1" page="1" pageScale="1" pageWidth="827" pageHeight="1169" math="0" shadow="0">
      <root>
        <mxCell id="0" />
        <mxCell id="1" parent="0" />
        <mxCell id="HNZ7wnlDcPWiLW9jHK7i-4" style="edgeStyle=orthogonalEdgeStyle;rounded=0;orthogonalLoop=1;jettySize=auto;html=1;exitX=1;exitY=0.5;exitDx=0;exitDy=0;entryX=0;entryY=0.5;entryDx=0;entryDy=0;" edge="1" parent="1" source="HNZ7wnlDcPWiLW9jHK7i-1" target="HNZ7wnlDcPWiLW9jHK7i-3">
          <mxGeometry relative="1" as="geometry" />
        </mxCell>
        <mxCell id="HNZ7wnlDcPWiLW9jHK7i-1" value="" style="ellipse;html=1;shape=startState;fillColor=#000000;strokeColor=#ff0000;" vertex="1" parent="1">
          <mxGeometry x="50" y="110" width="30" height="30" as="geometry" />
        </mxCell>
        <mxCell id="HNZ7wnlDcPWiLW9jHK7i-8" value="进入" style="edgeStyle=orthogonalEdgeStyle;rounded=0;orthogonalLoop=1;jettySize=auto;html=1;exitX=1;exitY=0.5;exitDx=0;exitDy=0;entryX=0;entryY=0.5;entryDx=0;entryDy=0;" edge="1" parent="1" source="HNZ7wnlDcPWiLW9jHK7i-3" target="HNZ7wnlDcPWiLW9jHK7i-7">
          <mxGeometry y="15" relative="1" as="geometry">
            <mxPoint as="offset" />
          </mxGeometry>
        </mxCell>
        <mxCell id="HNZ7wnlDcPWiLW9jHK7i-3" value="登陆" style="rounded=1;whiteSpace=wrap;html=1;" vertex="1" parent="1">
          <mxGeometry x="120" y="107.5" width="70" height="35" as="geometry" />
        </mxCell>
        <mxCell id="HNZ7wnlDcPWiLW9jHK7i-5" value="" style="curved=1;endArrow=classic;html=1;rounded=0;entryX=0.1;entryY=-0.043;entryDx=0;entryDy=0;entryPerimeter=0;" edge="1" parent="1" target="HNZ7wnlDcPWiLW9jHK7i-3">
          <mxGeometry width="50" height="50" relative="1" as="geometry">
            <mxPoint x="180" y="106" as="sourcePoint" />
            <mxPoint x="220" y="57.5" as="targetPoint" />
            <Array as="points">
              <mxPoint x="160" y="60" />
            </Array>
          </mxGeometry>
        </mxCell>
        <mxCell id="HNZ7wnlDcPWiLW9jHK7i-6" value="登陆失败" style="text;html=1;align=center;verticalAlign=middle;resizable=0;points=[];autosize=1;strokeColor=none;fillColor=none;" vertex="1" parent="1">
          <mxGeometry x="125" y="60" width="60" height="20" as="geometry" />
        </mxCell>
        <mxCell id="HNZ7wnlDcPWiLW9jHK7i-11" style="edgeStyle=orthogonalEdgeStyle;rounded=0;orthogonalLoop=1;jettySize=auto;html=1;exitX=1;exitY=0;exitDx=0;exitDy=0;entryX=0;entryY=0.5;entryDx=0;entryDy=0;" edge="1" parent="1" source="HNZ7wnlDcPWiLW9jHK7i-7" target="HNZ7wnlDcPWiLW9jHK7i-9">
          <mxGeometry relative="1" as="geometry" />
        </mxCell>
        <mxCell id="HNZ7wnlDcPWiLW9jHK7i-12" value="选择进入" style="edgeLabel;html=1;align=center;verticalAlign=middle;resizable=0;points=[];" vertex="1" connectable="0" parent="HNZ7wnlDcPWiLW9jHK7i-11">
          <mxGeometry x="-0.0321" y="3" relative="1" as="geometry">
            <mxPoint as="offset" />
          </mxGeometry>
        </mxCell>
        <mxCell id="HNZ7wnlDcPWiLW9jHK7i-13" style="edgeStyle=orthogonalEdgeStyle;rounded=0;orthogonalLoop=1;jettySize=auto;html=1;exitX=1;exitY=1;exitDx=0;exitDy=0;" edge="1" parent="1" source="HNZ7wnlDcPWiLW9jHK7i-7" target="HNZ7wnlDcPWiLW9jHK7i-10">
          <mxGeometry relative="1" as="geometry" />
        </mxCell>
        <mxCell id="HNZ7wnlDcPWiLW9jHK7i-14" value="选择进入" style="edgeLabel;html=1;align=center;verticalAlign=middle;resizable=0;points=[];" vertex="1" connectable="0" parent="HNZ7wnlDcPWiLW9jHK7i-13">
          <mxGeometry x="-0.2614" y="-2" relative="1" as="geometry">
            <mxPoint as="offset" />
          </mxGeometry>
        </mxCell>
        <mxCell id="HNZ7wnlDcPWiLW9jHK7i-7" value="系统主页" style="rounded=1;whiteSpace=wrap;html=1;" vertex="1" parent="1">
          <mxGeometry x="260" y="103.75" width="90" height="42.5" as="geometry" />
        </mxCell>
        <mxCell id="HNZ7wnlDcPWiLW9jHK7i-9" value="图书管理页面" style="rounded=1;whiteSpace=wrap;html=1;" vertex="1" parent="1">
          <mxGeometry x="400" y="37.5" width="90" height="42.5" as="geometry" />
        </mxCell>
        <mxCell id="HNZ7wnlDcPWiLW9jHK7i-10" value="用户管理页面" style="rounded=1;whiteSpace=wrap;html=1;" vertex="1" parent="1">
          <mxGeometry x="400" y="146.25" width="90" height="42.5" as="geometry" />
        </mxCell>
      </root>
    </mxGraphModel>
  </diagram>
</mxfile>
